<svg width="54" height="54" viewBox="0 0 54 54" fill="none" xmlns="http://www.w3.org/2000/svg">
<path d="M43.6875 30.3749H35.4375C35.2137 30.3749 34.9991 30.286 34.8409 30.1278C34.6826 29.9696 34.5938 29.755 34.5938 29.5312C34.5938 29.3074 34.6826 29.0928 34.8409 28.9346C34.9991 28.7763 35.2137 28.6874 35.4375 28.6874H43.6875C43.9113 28.6874 44.1259 28.7763 44.2841 28.9346C44.4423 29.0928 44.5312 29.3074 44.5312 29.5312C44.5312 29.755 44.4423 29.9696 44.2841 30.1278C44.1259 30.286 43.9113 30.3749 43.6875 30.3749Z" fill="#E0E2E5"/>
<path d="M25.3125 19.4062L27 39.6562V41.3437H37.125V39.6562L38.8125 19.4062H25.3125Z" fill="#93573D"/>
<path d="M16.875 19.4062V18.5624H13.5V21.0937H10.125V29.5312H13.5H16.875V28.6874H20.25V19.4062H16.875Z" fill="#FDD14B"/>
<path d="M13.5 32.0624C13.2762 32.0624 13.0616 31.9735 12.9034 31.8153C12.7451 31.6571 12.6562 31.4425 12.6562 31.2187V21.9374C12.6562 21.7137 12.7451 21.4991 12.9034 21.3408C13.0616 21.1826 13.2762 21.0937 13.5 21.0937C13.7238 21.0937 13.9384 21.1826 14.0966 21.3408C14.2549 21.4991 14.3438 21.7137 14.3438 21.9374V31.2187C14.3438 31.4425 14.2549 31.6571 14.0966 31.8153C13.9384 31.9735 13.7238 32.0624 13.5 32.0624Z" fill="#E4BC43"/>
<path d="M16.9957 33.7499C16.7733 33.7499 16.5599 33.6621 16.4019 33.5056C16.2439 33.3491 16.1541 33.1366 16.1519 32.9142L16.0313 20.2579C16.0292 20.0342 16.116 19.8187 16.2727 19.659C16.4295 19.4992 16.6432 19.4083 16.867 19.4062C17.0908 19.404 17.3063 19.4909 17.466 19.6476C17.6257 19.8044 17.7167 20.0181 17.7188 20.2419L17.8393 32.8982C17.8415 33.1219 17.7546 33.3373 17.598 33.4971C17.4413 33.6568 17.2276 33.7477 17.0038 33.7499H16.9957Z" fill="#E4BC43"/>
<path d="M9.28125 27.8437L10.9688 39.6562V41.3437H21.0938V39.6562V27.8437H9.28125Z" fill="#E74444"/>
<path d="M48.9375 30.3749H47.25C47.0262 30.3749 46.8116 30.286 46.6534 30.1278C46.4951 29.9696 46.4062 29.755 46.4062 29.5312C46.4062 29.3074 46.4951 29.0928 46.6534 28.9346C46.8116 28.7763 47.0262 28.6874 47.25 28.6874H48.9375C49.1613 28.6874 49.3759 28.7763 49.5341 28.9346C49.6924 29.0928 49.7812 29.3074 49.7812 29.5312C49.7812 29.755 49.6924 29.9696 49.5341 30.1278C49.3759 30.286 49.1613 30.3749 48.9375 30.3749Z" fill="#E0E2E5"/>
<path d="M38.8125 19.4062L38.5309 22.7812H25.5941L25.3125 19.4062H38.8125Z" fill="#A4D4F4"/>
<path d="M23.6737 14.3437C23.521 14.3435 23.3712 14.302 23.2403 14.2234C23.1094 14.1449 23.0022 14.0323 22.9302 13.8977C22.8583 13.763 22.8242 13.6114 22.8316 13.4589C22.839 13.3064 22.8877 13.1587 22.9724 13.0317L23.774 11.8288C23.8936 11.6493 23.94 11.4309 23.9036 11.2183C23.8672 11.0058 23.7507 10.8152 23.5782 10.6858L22.7574 10.07C22.24 9.68158 21.891 9.10991 21.7819 8.47229C21.6728 7.83466 21.8119 7.17946 22.1706 6.64117L22.9722 5.43809C23.0337 5.34589 23.1127 5.26671 23.2048 5.20506C23.2968 5.1434 23.4001 5.10049 23.5088 5.07876C23.6175 5.05703 23.7293 5.05692 23.838 5.07843C23.9467 5.09993 24.0501 5.14264 24.1423 5.20411C24.2345 5.26557 24.3137 5.3446 24.3754 5.43667C24.437 5.52874 24.4799 5.63205 24.5017 5.74071C24.5234 5.84936 24.5235 5.96124 24.502 6.06994C24.4805 6.17864 24.4378 6.28203 24.3763 6.37423L23.5744 7.57721C23.4548 7.75666 23.4085 7.9751 23.4449 8.18767C23.4813 8.40023 23.5977 8.59078 23.7703 8.72017L24.5911 9.336C25.1086 9.72432 25.4577 10.296 25.5669 10.9336C25.6762 11.5712 25.5372 12.2265 25.1785 12.7649L24.3769 13.968C24.2998 14.0838 24.1952 14.1787 24.0725 14.2442C23.9498 14.3098 23.8128 14.3439 23.6737 14.3437Z" fill="#E0E2E5"/>
<path d="M16.9237 14.3438C16.771 14.3437 16.6212 14.3021 16.4903 14.2236C16.3594 14.145 16.2522 14.0324 16.1802 13.8978C16.1083 13.7631 16.0742 13.6115 16.0816 13.459C16.089 13.3065 16.1377 13.1589 16.2224 13.0319L17.024 11.8289C17.1436 11.6494 17.19 11.431 17.1536 11.2184C17.1172 11.0059 17.0007 10.8153 16.8282 10.6859L16.0074 10.0701C15.49 9.6817 15.141 9.11003 15.0319 8.47241C14.9228 7.83479 15.0619 7.17959 15.4206 6.6413L16.2222 5.43822C16.3463 5.25202 16.5394 5.12276 16.7588 5.07888C16.9782 5.035 17.2061 5.08009 17.3923 5.20423C17.5785 5.32837 17.7078 5.52139 17.7517 5.74083C17.7955 5.96028 17.7504 6.18816 17.6263 6.37436L16.8244 7.57733C16.7048 7.75679 16.6585 7.97523 16.6949 8.18779C16.7313 8.40036 16.8477 8.5909 17.0203 8.7203L17.8411 9.33613C18.3586 9.72445 18.7077 10.2961 18.8169 10.9337C18.9262 11.5714 18.7872 12.2266 18.4285 12.765L17.6269 13.9681C17.5498 14.0839 17.4452 14.1788 17.3225 14.2443C17.1998 14.3099 17.0628 14.344 16.9237 14.3438Z" fill="#E0E2E5"/>
<path d="M30.3299 14.3437C30.1772 14.3436 30.0274 14.302 29.8965 14.2235C29.7656 14.1449 29.6584 14.0323 29.5865 13.8977C29.5145 13.763 29.4804 13.6114 29.4878 13.4589C29.4952 13.3064 29.5439 13.1588 29.6286 13.0318L30.4307 11.8288C30.5503 11.6493 30.5967 11.4309 30.5603 11.2183C30.5238 11.0058 30.4074 10.8152 30.2349 10.6858L29.414 10.0701C28.8966 9.68176 28.5474 9.11012 28.4382 8.47248C28.329 7.83484 28.468 7.17958 28.8266 6.64119L29.6282 5.43811C29.7523 5.25183 29.9454 5.12249 30.1649 5.07855C30.2736 5.0568 30.3855 5.05666 30.4942 5.07815C30.603 5.09964 30.7064 5.14234 30.7986 5.20381C30.8909 5.26528 30.9701 5.34431 31.0318 5.4364C31.0935 5.52848 31.1364 5.63182 31.1582 5.7405C31.18 5.84919 31.1801 5.9611 31.1586 6.06983C31.1371 6.17857 31.0944 6.28201 31.0329 6.37425L30.2314 7.57723C30.1118 7.75667 30.0654 7.9751 30.1018 8.18766C30.1382 8.40023 30.2546 8.59078 30.4271 8.72019L31.248 9.33602C31.7655 9.72431 32.1146 10.296 32.2239 10.9336C32.3331 11.5713 32.1941 12.2265 31.8354 12.7649L31.0338 13.968C30.9566 14.0839 30.8519 14.1788 30.7291 14.2444C30.6063 14.3099 30.4691 14.344 30.3299 14.3437Z" fill="#E0E2E5"/>
<path d="M51.4688 25.3124H42.1875C41.9637 25.3124 41.7491 25.2235 41.5909 25.0653C41.4326 24.9071 41.3438 24.6925 41.3438 24.4687C41.3438 24.2449 41.4326 24.0303 41.5909 23.8721C41.7491 23.7138 41.9637 23.6249 42.1875 23.6249H51.4688C51.6925 23.6249 51.9071 23.7138 52.0654 23.8721C52.2236 24.0303 52.3125 24.2449 52.3125 24.4687C52.3125 24.6925 52.2236 24.9071 52.0654 25.0653C51.9071 25.2235 51.6925 25.3124 51.4688 25.3124Z" fill="#E0E2E5"/>
<path d="M45.5625 35.4374H40.5C40.2762 35.4374 40.0616 35.3485 39.9034 35.1903C39.7451 35.0321 39.6562 34.8175 39.6562 34.5937C39.6562 34.3699 39.7451 34.1553 39.9034 33.9971C40.0616 33.8388 40.2762 33.7499 40.5 33.7499H45.5625C45.7863 33.7499 46.0009 33.8388 46.1591 33.9971C46.3174 34.1553 46.4062 34.3699 46.4062 34.5937C46.4062 34.8175 46.3174 35.0321 46.1591 35.1903C46.0009 35.3485 45.7863 35.4374 45.5625 35.4374Z" fill="#E0E2E5"/>
<path d="M51.4688 48.9374H2.53125C2.30747 48.9374 2.09286 48.8485 1.93463 48.6903C1.77639 48.5321 1.6875 48.3175 1.6875 48.0937C1.6875 47.8699 1.77639 47.6553 1.93463 47.4971C2.09286 47.3388 2.30747 47.2499 2.53125 47.2499H51.4688C51.6925 47.2499 51.9071 47.3388 52.0654 47.4971C52.2236 47.6553 52.3125 47.8699 52.3125 48.0937C52.3125 48.3175 52.2236 48.5321 52.0654 48.6903C51.9071 48.8485 51.6925 48.9374 51.4688 48.9374Z" fill="#C2C5C6"/>
<path d="M2.53125 39.6562H44.7188V41.3437C44.7188 41.7912 44.541 42.2205 44.2245 42.5369C43.908 42.8534 43.4788 43.0312 43.0312 43.0312H4.21875C3.7712 43.0312 3.34197 42.8534 3.02551 42.5369C2.70904 42.2205 2.53125 41.7912 2.53125 41.3437V39.6562Z" fill="#FDD14B"/>
<path d="M36.2812 48.0937C39.0772 48.0937 41.3438 45.8271 41.3438 43.0312C41.3438 40.2352 39.0772 37.9687 36.2812 37.9687C33.4853 37.9687 31.2188 40.2352 31.2188 43.0312C31.2188 45.8271 33.4853 48.0937 36.2812 48.0937Z" fill="#6A7073"/>
<path d="M36.2812 44.7187C37.2132 44.7187 37.9688 43.9632 37.9688 43.0312C37.9688 42.0992 37.2132 41.3437 36.2812 41.3437C35.3493 41.3437 34.5938 42.0992 34.5938 43.0312C34.5938 43.9632 35.3493 44.7187 36.2812 44.7187Z" fill="#99A2A7"/>
<path d="M10.9688 48.0937C13.7647 48.0937 16.0312 45.8271 16.0312 43.0312C16.0312 40.2352 13.7647 37.9687 10.9688 37.9687C8.17281 37.9687 5.90625 40.2352 5.90625 43.0312C5.90625 45.8271 8.17281 48.0937 10.9688 48.0937Z" fill="#6A7073"/>
<path d="M10.9688 44.7187C11.9007 44.7187 12.6562 43.9632 12.6562 43.0312C12.6562 42.0992 11.9007 41.3437 10.9688 41.3437C10.0368 41.3437 9.28125 42.0992 9.28125 43.0312C9.28125 43.9632 10.0368 44.7187 10.9688 44.7187Z" fill="#99A2A7"/>
<path d="M16.0312 36.2812H31.2188V37.9687C31.2188 38.4162 31.041 38.8455 30.7245 39.1619C30.408 39.4784 29.9788 39.6562 29.5312 39.6562H17.7188C17.2712 39.6562 16.842 39.4784 16.5255 39.1619C16.209 38.8455 16.0312 38.4162 16.0312 37.9687V36.2812Z" fill="#EA8333"/>
<path d="M30.5285 32.9062C31.3757 32.9062 32.0625 33.6617 32.0625 34.5937C32.0625 35.5257 31.3757 36.2812 30.5285 36.2812H16.7215C15.8743 36.2812 15.1875 35.5257 15.1875 34.5937C15.1875 33.6617 15.8743 32.9062 16.7215 32.9062H30.5285Z" fill="#794832"/>
<path d="M16.875 29.5312H30.375V32.9062H16.875V29.5312Z" fill="#FDD14B"/>
<path d="M32.9062 30.3749C32.9062 31.7729 31.719 32.9062 30.2544 32.9062C29.8221 32.9095 29.3953 32.8083 29.0104 32.6111C28.6256 32.414 28.2941 32.1268 28.0441 31.774C27.7919 32.1243 27.46 32.4096 27.0759 32.6064C26.6917 32.8032 26.2662 32.9058 25.8346 32.9058C25.4029 32.9058 24.9775 32.8032 24.5933 32.6064C24.2091 32.4096 23.8772 32.1243 23.625 31.774C23.3728 32.1243 23.0409 32.4096 22.6567 32.6064C22.2725 32.8032 21.8471 32.9058 21.4154 32.9058C20.9838 32.9058 20.5583 32.8032 20.1741 32.6064C19.79 32.4096 19.4581 32.1243 19.2059 31.774C18.9559 32.1268 18.6244 32.414 18.2395 32.6111C17.8547 32.8083 17.4279 32.9095 16.9956 32.9062C15.531 32.9062 14.3438 31.7729 14.3438 30.3749C14.3438 30.1512 14.4326 29.9366 14.5909 29.7783C14.7491 29.6201 14.9637 29.5312 15.1875 29.5312H32.0625C32.2863 29.5312 32.5009 29.6201 32.6591 29.7783C32.8174 29.9366 32.9062 30.1512 32.9062 30.3749Z" fill="#3BA673"/>
<path d="M31.2188 22.7812V16.0312C31.2187 15.8626 31.2693 15.6978 31.3638 15.5582C31.4584 15.4185 31.5926 15.3104 31.7492 15.2478L35.9679 13.5603C36.0708 13.5191 36.1808 13.4986 36.2916 13.5C36.4024 13.5014 36.5118 13.5245 36.6136 13.5682C36.7155 13.6118 36.8077 13.6751 36.8851 13.7544C36.9625 13.8337 37.0235 13.9275 37.0647 14.0304C37.1058 14.1332 37.1263 14.2432 37.125 14.354C37.1236 14.4648 37.1004 14.5743 37.0568 14.6761C37.0131 14.7779 36.9499 14.8702 36.8706 14.9476C36.7912 15.025 36.6975 15.086 36.5946 15.1271L32.9063 16.6024V22.7812H31.2188Z" fill="#E74444"/>
<path d="M31.2188 19.4062H32.9062V22.7812H31.2188V19.4062Z" fill="#CE3536"/>
</svg>
