<svg width="32" height="34" viewBox="0 0 32 34" fill="none" xmlns="http://www.w3.org/2000/svg">
<path d="M15.8877 14.6966L2.3125 16.6389L7.4074 32.4102C7.55508 32.8374 8.04734 33.1482 8.61344 33.1482H23.3813C23.9473 33.1482 24.4396 32.8374 24.5873 32.4102L29.6824 16.6389L15.8877 14.6966ZM13.5361 11.7832C14.2163 11.7832 14.7667 11.3488 14.7667 10.812V0.971139C14.7667 0.434358 14.2163 0 13.5361 0C12.8558 0 12.3054 0.434358 12.3054 0.971139V10.812C12.3054 11.3488 12.8558 11.7832 13.5361 11.7832ZM18.4587 11.7832C19.1389 11.7832 19.6893 11.3488 19.6893 10.812V0.971139C19.6893 0.434358 19.1389 0 18.4587 0C17.7784 0 17.228 0.434358 17.228 0.971139V10.812C17.228 11.3488 17.7784 11.7832 18.4587 11.7832Z" fill="url(#paint0_linear_1_427)"/>
<path d="M31.3092 11.8803C30.7185 11.6472 29.98 11.8414 29.6603 12.3269L28.1587 14.6966L24.4176 10.2681C24.1715 9.9962 23.8022 9.84088 23.3839 9.84088H8.61606C8.19764 9.84088 7.82844 9.9962 7.58231 10.2681L3.84113 14.6966L2.33973 12.3269C2.01976 11.8414 1.28137 11.6472 0.690738 11.8803C0.0754119 12.1328 -0.170801 12.7155 0.124556 13.1815L2.31512 16.6389H29.685L31.8753 13.1815C32.1709 12.7154 31.9245 12.1328 31.3092 11.8803ZM16 21.4946C13.9642 21.4946 12.308 22.8014 12.308 24.408C12.308 26.0145 13.9642 27.3214 16 27.3214C18.0358 27.3214 19.6919 26.0145 19.6919 24.408C19.6919 22.8014 18.0358 21.4946 16 21.4946Z" fill="url(#paint1_linear_1_427)"/>
<defs>
<linearGradient id="paint0_linear_1_427" x1="15.9974" y1="33.1482" x2="15.9974" y2="0" gradientUnits="userSpaceOnUse">
<stop stop-color="#FD3A84"/>
<stop offset="1" stop-color="#FFA68D"/>
</linearGradient>
<linearGradient id="paint1_linear_1_427" x1="16" y1="27.3214" x2="16" y2="9.84088" gradientUnits="userSpaceOnUse">
<stop stop-color="#FFC2CC"/>
<stop offset="1" stop-color="#FFF2F4"/>
</linearGradient>
</defs>
</svg>
