<svg width="44" height="44" viewBox="0 0 44 44" fill="none" xmlns="http://www.w3.org/2000/svg">
<g clip-path="url(#clip0_1_163)">
<path d="M35.5745 30.3716H12.5435C12.0279 30.3716 11.6099 29.9536 11.6099 29.438V18.68C11.6099 18.1644 12.0279 17.7464 12.5435 17.7464H35.5745C36.0901 17.7464 36.5081 18.1644 36.5081 18.68V29.438C36.5083 29.9535 36.0903 30.3716 35.5745 30.3716Z" fill="url(#paint0_linear_1_163)"/>
<path d="M11.6352 29.0498L12.957 30.3716H35.5745C36.0901 30.3716 36.5081 29.9537 36.5081 29.438V18.68C36.5081 18.1644 36.0901 17.7463 35.5745 17.7463H12.5435C12.0279 17.7463 11.6099 18.1643 11.6099 18.68V28.9955L11.6352 29.0498Z" fill="url(#paint1_linear_1_163)"/>
<path d="M34.1717 28.9713H11.1407C10.625 28.9713 10.207 28.5533 10.207 28.0377V17.2796C10.207 16.764 10.625 16.346 11.1407 16.346H34.1717C34.6873 16.346 35.1053 16.764 35.1053 17.2796V28.0376C35.1053 28.5533 34.6873 28.9713 34.1717 28.9713Z" fill="url(#paint2_linear_1_163)"/>
<path d="M10.2322 27.6495L11.554 28.9713H34.1715C34.6871 28.9713 35.1051 28.5533 35.1051 28.0377V17.2796C35.1051 16.764 34.6871 16.3459 34.1715 16.3459H11.1407C10.625 16.3459 10.207 16.7639 10.207 17.2796V27.5951L10.2322 27.6495Z" fill="url(#paint3_linear_1_163)"/>
<path d="M32.7737 27.5708H9.74271C9.22708 27.5708 8.80908 27.1528 8.80908 26.6372V15.8792C8.80908 15.3636 9.22708 14.9456 9.74271 14.9456H32.7737C33.2894 14.9456 33.7074 15.3636 33.7074 15.8792V26.6372C33.7074 27.1528 33.2894 27.5708 32.7737 27.5708Z" fill="url(#paint4_linear_1_163)"/>
<path d="M8.83443 26.249L10.1562 27.5708H32.7737C33.2894 27.5708 33.7074 27.1528 33.7074 26.6372V15.8792C33.7074 15.3636 33.2894 14.9456 32.7737 14.9456H9.74271C9.22708 14.9456 8.80908 15.3636 8.80908 15.8792V26.1947L8.83443 26.249Z" fill="url(#paint5_linear_1_163)"/>
<path d="M31.4573 26.2535H8.4263C7.91067 26.2535 7.49268 25.8355 7.49268 25.3198V14.5619C7.49268 14.0462 7.91067 13.6282 8.4263 13.6282H31.4573C31.973 13.6282 32.391 14.0462 32.391 14.5619V25.3198C32.391 25.8354 31.973 26.2535 31.4573 26.2535Z" fill="url(#paint6_linear_1_163)"/>
<path d="M30.9827 16.2973C30.3071 16.2623 29.755 15.7088 29.7199 15.0333C29.7122 14.8838 29.7296 14.7397 29.7675 14.6039H10.1125C10.1504 14.7396 10.1679 14.8838 10.1601 15.0332C10.1249 15.7088 9.57279 16.2623 8.89732 16.2973C8.66623 16.3093 8.44735 16.2623 8.25391 16.1703V23.711C8.44752 23.619 8.66658 23.572 8.89775 23.5841C9.5733 23.6194 10.1252 24.1731 10.1601 24.8486C10.1677 24.9979 10.1504 25.1418 10.1125 25.2775H29.7675C29.7296 25.1419 29.7122 24.9979 29.7199 24.8486C29.7548 24.1731 30.3067 23.6194 30.9822 23.5841C31.2134 23.5719 31.4325 23.619 31.626 23.711V16.1703C31.4327 16.2624 31.2137 16.3093 30.9827 16.2973Z" fill="url(#paint7_linear_1_163)"/>
<path d="M19.94 23.1734C21.7255 23.1734 23.1729 21.726 23.1729 19.9405C23.1729 18.155 21.7255 16.7075 19.94 16.7075C18.1545 16.7075 16.707 18.155 16.707 19.9405C16.707 21.726 18.1545 23.1734 19.94 23.1734Z" fill="url(#paint8_linear_1_163)"/>
<path d="M15.4964 15.7916H10.5312V17.22H15.4964V15.7916Z" fill="url(#paint9_linear_1_163)"/>
<path d="M29.3479 22.6616H24.3828V24.09H29.3479V22.6616Z" fill="url(#paint10_linear_1_163)"/>
<path d="M42.7321 9.97245C41.8421 9.64683 40.868 10.0185 40.405 10.8083C38.9453 8.39876 37.0181 6.29063 34.6969 4.58727C30.9772 1.85807 26.5661 0.415527 21.9402 0.415527C17.3142 0.415527 12.903 1.85807 9.18345 4.58727C5.54048 7.26026 2.86646 10.9294 1.4503 15.1978C1.11454 16.2099 1.66282 17.3026 2.6749 17.6383C3.68733 17.9742 4.77977 17.4258 5.11544 16.4137C6.27791 12.91 8.47456 9.89699 11.4679 7.70061C14.5204 5.46082 18.1416 4.27686 21.9402 4.27686C25.7388 4.27686 29.3598 5.46082 32.4124 7.70069C34.1951 9.00866 35.695 10.6064 36.8623 12.4248C35.9741 12.2914 35.0847 12.795 34.7641 13.6714C34.3976 14.6728 34.9124 15.7816 35.9138 16.1481L39.9341 17.6191C39.9437 17.6226 39.9535 17.6249 39.9631 17.6283C39.9969 17.64 40.0309 17.6507 40.0653 17.6606C40.0837 17.6658 40.102 17.6712 40.1204 17.676C40.1551 17.6849 40.1901 17.6924 40.2253 17.6993C40.2433 17.7029 40.2612 17.707 40.2791 17.71C40.3165 17.7163 40.3541 17.7206 40.392 17.7249C40.4074 17.7265 40.4228 17.7291 40.4382 17.7303C40.4909 17.7347 40.5439 17.7371 40.5972 17.7371C40.5972 17.7371 40.5972 17.7371 40.5972 17.7371H40.5973C40.6474 17.7371 40.6974 17.7351 40.7469 17.7312C40.7587 17.7303 40.7705 17.7283 40.7824 17.7272C40.8205 17.7235 40.8586 17.7195 40.8963 17.7135C40.9109 17.7112 40.9254 17.7078 40.9401 17.7051C40.9753 17.6987 41.0103 17.6921 41.0449 17.6839C41.0611 17.68 41.0772 17.675 41.0934 17.6706C41.1263 17.6619 41.1588 17.653 41.191 17.6426C41.1958 17.6411 41.2006 17.64 41.2055 17.6385C41.215 17.6353 41.224 17.6309 41.2335 17.6277C41.2761 17.6127 41.3181 17.5966 41.3595 17.5788C41.3773 17.5712 41.395 17.5636 41.4124 17.5555C41.4527 17.5367 41.4924 17.5163 41.5314 17.4947C41.5438 17.4879 41.5566 17.4818 41.5689 17.4748C41.6158 17.4475 41.6613 17.4177 41.7059 17.3865C41.7234 17.3743 41.74 17.3613 41.7568 17.3486C41.7865 17.3263 41.8157 17.3032 41.8443 17.2792C41.8599 17.2659 41.8754 17.2527 41.8906 17.239C41.9231 17.2097 41.9545 17.1791 41.985 17.1475C41.9935 17.1388 42.0026 17.1304 42.0108 17.1215C42.0506 17.0788 42.0887 17.0341 42.1247 16.9875C42.1272 16.9842 42.1294 16.9808 42.1319 16.9775C42.164 16.9354 42.1944 16.8916 42.2232 16.8465C42.2308 16.8344 42.2381 16.8221 42.2455 16.8098C42.2678 16.7732 42.2888 16.7358 42.3089 16.6974C42.317 16.6816 42.3253 16.6658 42.333 16.6498C42.3505 16.6138 42.3665 16.577 42.3819 16.5395C42.389 16.5222 42.3967 16.5051 42.4033 16.4875C42.4055 16.4815 42.4084 16.4758 42.4106 16.4697L43.8817 12.4494C44.2482 11.4478 43.7334 10.3389 42.7321 9.97245Z" fill="url(#paint11_linear_1_163)"/>
<path d="M1.26782 34.0273C2.15778 34.3529 3.13188 33.9812 3.59491 33.1914C5.05465 35.6009 6.98179 37.7091 9.30304 39.4124C13.0226 42.1416 17.4338 43.5843 22.0598 43.5843C26.6857 43.5843 31.0969 42.1417 34.8165 39.4124C38.4594 36.7394 41.1335 33.0703 42.5497 28.8019C42.8855 27.7898 42.3372 26.6972 41.3251 26.3614C40.3127 26.0256 39.2202 26.5739 38.8846 27.586C37.7221 31.0898 35.5254 34.1027 32.5321 36.2991C29.4796 38.5389 25.8584 39.7228 22.0598 39.7228C18.2612 39.7228 14.6402 38.539 11.5876 36.2991C9.80492 34.9911 8.30497 33.3934 7.13768 31.575C8.02593 31.7084 8.91529 31.2048 9.23593 30.3284C9.60245 29.3271 9.0876 28.2182 8.08617 27.8517L4.06594 26.3807C4.05631 26.3772 4.04652 26.3749 4.03689 26.3715C4.00312 26.3598 3.96909 26.3491 3.93471 26.3392C3.91632 26.334 3.89802 26.3286 3.87963 26.3238C3.84491 26.3149 3.80993 26.3074 3.7747 26.3005C3.75673 26.2969 3.73877 26.2928 3.7209 26.2898C3.68352 26.2835 3.64588 26.2792 3.60798 26.2749C3.59259 26.2733 3.57721 26.2707 3.56183 26.2695C3.50915 26.2652 3.45613 26.2627 3.40284 26.2627C3.40284 26.2627 3.40285 26.2627 3.40276 26.2627H3.40267C3.35257 26.2627 3.30264 26.2647 3.25314 26.2686C3.24128 26.2695 3.22951 26.2715 3.21765 26.2726C3.17949 26.2763 3.14142 26.2803 3.1037 26.2863C3.08909 26.2886 3.07456 26.292 3.05987 26.2947C3.02472 26.3011 2.98974 26.3077 2.95511 26.3159C2.93887 26.3198 2.9228 26.3248 2.90656 26.3292C2.87381 26.3379 2.84116 26.3468 2.80902 26.3572C2.80421 26.3587 2.79939 26.3598 2.79449 26.3613C2.78496 26.3645 2.77602 26.3689 2.76648 26.3721C2.72394 26.3871 2.68192 26.4033 2.64049 26.421C2.62271 26.4286 2.605 26.4363 2.58764 26.4443C2.54725 26.4631 2.50764 26.4835 2.46862 26.5051C2.45625 26.5119 2.44335 26.518 2.43115 26.525C2.38423 26.5523 2.33868 26.5821 2.29408 26.6133C2.27664 26.6255 2.26005 26.6385 2.24321 26.6512C2.21347 26.6735 2.18425 26.6966 2.15572 26.7206C2.14008 26.7339 2.12461 26.7471 2.1094 26.7608C2.07692 26.7901 2.04546 26.8207 2.01496 26.8523C2.00654 26.861 1.99743 26.8694 1.98918 26.8783C1.94939 26.921 1.91132 26.9657 1.87531 27.0123C1.87282 27.0156 1.87058 27.019 1.86809 27.0223C1.83604 27.0644 1.80561 27.1082 1.77682 27.1533C1.76918 27.1654 1.76187 27.1777 1.75448 27.19C1.73222 27.2266 1.71117 27.264 1.69115 27.3024C1.68298 27.3182 1.67473 27.334 1.667 27.35C1.64955 27.386 1.63348 27.4228 1.6181 27.4603C1.61097 27.4776 1.60332 27.4947 1.5967 27.5123C1.59447 27.5183 1.59163 27.524 1.5894 27.5301L0.118148 31.5505C-0.248374 32.5519 0.26639 33.6609 1.26782 34.0273Z" fill="url(#paint12_radial_1_163)"/>
</g>
<defs>
<linearGradient id="paint0_linear_1_163" x1="11.6096" y1="24.0594" x2="36.5074" y2="24.0594" gradientUnits="userSpaceOnUse">
<stop stop-color="#61DB99"/>
<stop offset="1" stop-color="#009E74"/>
</linearGradient>
<linearGradient id="paint1_linear_1_163" x1="25.1839" y1="27.8651" x2="23.8777" y2="23.1176" gradientUnits="userSpaceOnUse">
<stop stop-color="#009E74" stop-opacity="0"/>
<stop offset="1" stop-color="#009E74"/>
</linearGradient>
<linearGradient id="paint2_linear_1_163" x1="10.2068" y1="22.6591" x2="35.1046" y2="22.6591" gradientUnits="userSpaceOnUse">
<stop stop-color="#61DB99"/>
<stop offset="1" stop-color="#009E74"/>
</linearGradient>
<linearGradient id="paint3_linear_1_163" x1="23.6262" y1="27.0377" x2="22.7652" y2="22.9139" gradientUnits="userSpaceOnUse">
<stop stop-color="#009E74" stop-opacity="0"/>
<stop offset="1" stop-color="#009E74"/>
</linearGradient>
<linearGradient id="paint4_linear_1_163" x1="8.80886" y1="21.2587" x2="33.7067" y2="21.2587" gradientUnits="userSpaceOnUse">
<stop stop-color="#61DB99"/>
<stop offset="1" stop-color="#009E74"/>
</linearGradient>
<linearGradient id="paint5_linear_1_163" x1="23.1313" y1="28.3975" x2="19.1274" y2="12.5432" gradientUnits="userSpaceOnUse">
<stop stop-color="#009E74" stop-opacity="0"/>
<stop offset="1" stop-color="#009E74"/>
</linearGradient>
<linearGradient id="paint6_linear_1_163" x1="7.4925" y1="19.9414" x2="32.3903" y2="19.9414" gradientUnits="userSpaceOnUse">
<stop stop-color="#A7F3CE"/>
<stop offset="1" stop-color="#61DB99"/>
</linearGradient>
<linearGradient id="paint7_linear_1_163" x1="13.4361" y1="13.4377" x2="29.2792" y2="29.2808" gradientUnits="userSpaceOnUse">
<stop stop-color="#61DB99"/>
<stop offset="1" stop-color="#009E74"/>
</linearGradient>
<linearGradient id="paint8_linear_1_163" x1="18.0157" y1="18.0172" x2="22.7028" y2="22.7043" gradientUnits="userSpaceOnUse">
<stop stop-color="#A7F3CE"/>
<stop offset="1" stop-color="#61DB99"/>
</linearGradient>
<linearGradient id="paint9_linear_1_163" x1="11.6688" y1="15.1617" x2="14.9455" y2="18.4383" gradientUnits="userSpaceOnUse">
<stop stop-color="#A7F3CE"/>
<stop offset="1" stop-color="#61DB99"/>
</linearGradient>
<linearGradient id="paint10_linear_1_163" x1="25.5196" y1="22.0311" x2="28.7963" y2="25.3078" gradientUnits="userSpaceOnUse">
<stop stop-color="#A7F3CE"/>
<stop offset="1" stop-color="#61DB99"/>
</linearGradient>
<linearGradient id="paint11_linear_1_163" x1="1.35154" y1="9.07712" x2="43.999" y2="9.07712" gradientUnits="userSpaceOnUse">
<stop stop-color="#FFB92D"/>
<stop offset="1" stop-color="#F59500"/>
</linearGradient>
<radialGradient id="paint12_radial_1_163" cx="0" cy="0" r="1" gradientUnits="userSpaceOnUse" gradientTransform="translate(22.2838 22.1381) rotate(180) scale(21.8589 21.8588)">
<stop stop-color="#BE3F45"/>
<stop offset="0.317" stop-color="#C14046"/>
<stop offset="0.538" stop-color="#CA4148"/>
<stop offset="0.729" stop-color="#D9444B"/>
<stop offset="0.902" stop-color="#EF4950"/>
<stop offset="1" stop-color="#FF4C54"/>
</radialGradient>
<clipPath id="clip0_1_163">
<rect width="44" height="44" fill="white"/>
</clipPath>
</defs>
</svg>
