<svg width="51" height="35" viewBox="0 0 51 35" fill="none" xmlns="http://www.w3.org/2000/svg">
<path d="M37.3988 28.8424V11.4028H3.39893V28.8424C3.39893 29.5833 4.15999 30.1839 5.09892 30.1839H35.6988C36.6377 30.1839 37.3988 29.5833 37.3988 28.8424Z" fill="#289BC3"/>
<path d="M13.6015 26.1593H10.2015C7.38486 26.1593 5.10156 27.9611 5.10156 30.1838C5.10156 32.4065 7.38486 34.2083 10.2015 34.2083H13.6015C16.4182 34.2083 18.7015 32.4065 18.7015 30.1838C18.7015 27.9611 16.4182 26.1593 13.6015 26.1593Z" fill="#32283C"/>
<path d="M44.1987 26.1594H40.7987C37.982 26.1594 35.6987 27.9612 35.6987 30.1839C35.6987 32.4066 37.982 34.2084 40.7987 34.2084H44.1987C47.0154 34.2084 49.2987 32.4066 49.2987 30.1839C49.2987 27.9612 47.0154 26.1594 44.1987 26.1594Z" fill="#32283C"/>
<path d="M40.7987 34.2084C43.6153 34.2084 45.8987 32.4066 45.8987 30.1839C45.8987 27.9612 43.6153 26.1594 40.7987 26.1594C37.9821 26.1594 35.6987 27.9612 35.6987 30.1839C35.6987 32.4066 37.9821 34.2084 40.7987 34.2084Z" fill="#555A6E"/>
<path d="M40.7976 31.5254C41.7365 31.5254 42.4976 30.9247 42.4976 30.1839C42.4976 29.443 41.7365 28.8423 40.7976 28.8423C39.8588 28.8423 39.0977 29.443 39.0977 30.1839C39.0977 30.9247 39.8588 31.5254 40.7976 31.5254Z" fill="#E6E6EB"/>
<path d="M30.601 26.1594H27.201C24.3844 26.1594 22.1011 27.9612 22.1011 30.1839C22.1011 32.4066 24.3844 34.2084 27.201 34.2084H30.601C33.4177 34.2084 35.701 32.4066 35.701 30.1839C35.701 27.9612 33.4177 26.1594 30.601 26.1594Z" fill="#32283C"/>
<path d="M47.6022 12.7443H22.1023C21.1634 12.7443 20.4023 13.3449 20.4023 14.0858V15.4273H47.6022C48.5411 15.4273 49.3022 14.8268 49.3022 14.0858C49.3022 13.3449 48.5411 12.7443 47.6022 12.7443Z" fill="#A5C3DC"/>
<path d="M30.6023 12.7443H22.1023C21.1634 12.7443 20.4023 13.3449 20.4023 14.0858V15.4273H30.6023C31.5412 15.4273 32.3023 14.8268 32.3023 14.0858C32.3023 13.3449 31.5412 12.7443 30.6023 12.7443Z" fill="#D7E6F0"/>
<path d="M20.4023 15.4273H47.6022V22.1348H20.4023V15.4273Z" fill="#463C4B"/>
<path d="M20.4023 15.4273H30.6023V22.1348H20.4023V15.4273Z" fill="#555A6E"/>
<path d="M49.3022 30.1839H22.1023C21.1634 30.1839 20.4023 29.5833 20.4023 28.8424V22.1348H47.6022C49.4799 22.1348 51.0022 23.3361 51.0022 24.8178V28.8424C51.0022 29.5833 50.2411 30.1839 49.3022 30.1839Z" fill="#A5C3DC"/>
<path d="M32.3023 30.1839H22.1023C21.1634 30.1839 20.4023 29.5833 20.4023 28.8424V22.1348H30.6023C32.48 22.1348 34.0023 23.3361 34.0023 24.8178V28.8424C34.0023 29.5833 33.2412 30.1839 32.3023 30.1839Z" fill="#D7E6F0"/>
<path d="M38.1072 24.8179H46.8905C48.2206 24.8179 49.2988 25.6687 49.2988 26.7184C49.2988 27.7679 48.2205 28.6189 46.8904 28.6189H38.1071C36.7771 28.6189 35.6987 27.768 35.6987 26.7184C35.6988 25.6687 36.7771 24.8179 38.1072 24.8179Z" fill="#555A6E"/>
<path d="M38.1109 27.7254C38.8151 27.7254 39.3859 27.2747 39.3859 26.7188C39.3859 26.1629 38.8151 25.7122 38.1109 25.7122C37.4068 25.7122 36.8359 26.1629 36.8359 26.7188C36.8359 27.2747 37.4068 27.7254 38.1109 27.7254Z" fill="#00D2D2"/>
<path d="M46.8883 27.7254C47.5924 27.7254 48.1633 27.2747 48.1633 26.7188C48.1633 26.1629 47.5924 25.7122 46.8883 25.7122C46.1841 25.7122 45.6133 26.1629 45.6133 26.7188C45.6133 27.2747 46.1841 27.7254 46.8883 27.7254Z" fill="#00D2D2"/>
<path d="M16.1497 0H11.0497C10.5803 0 10.1997 0.30033 10.1997 0.670753C10.1997 1.04118 10.5803 1.34151 11.0497 1.34151C14.3305 1.34151 16.9997 3.44784 16.9997 6.03678C16.9997 6.4072 17.3803 6.70753 17.8497 6.70753H22.9496C23.4191 6.70753 23.7996 6.4072 23.7996 6.03678C23.7996 2.70808 20.3679 0 16.1497 0Z" fill="#A5C3DC"/>
<path d="M29.7494 0H24.6495C20.4313 0 16.9995 2.70808 16.9995 6.03678C16.9995 6.4072 17.3801 6.70753 17.8495 6.70753H22.9495C23.4189 6.70753 23.7995 6.4072 23.7995 6.03678C23.7995 3.44784 26.4687 1.34151 29.7494 1.34151C30.2189 1.34151 30.5994 1.04118 30.5994 0.670753C30.5994 0.30033 30.2189 0 29.7494 0Z" fill="#A5C3DC"/>
<path d="M33.1497 0H28.0497C27.5803 0 27.1997 0.30033 27.1997 0.670753C27.1997 1.04118 27.5803 1.34151 28.0497 1.34151C29.4558 1.34151 30.5997 2.24417 30.5997 3.35376C30.5997 4.46336 29.4558 5.36602 28.0497 5.36602C27.5803 5.36602 27.1997 5.66635 27.1997 6.03678C27.1997 6.4072 27.5803 6.70753 28.0497 6.70753H33.1497C35.4931 6.70753 37.3997 5.20303 37.3997 3.35376C37.3997 1.5045 35.4931 0 33.1497 0Z" fill="#A5C3DC"/>
<path d="M12.7489 5.36602C11.3428 5.36602 10.1989 4.46336 10.1989 3.35376C10.1989 2.24417 11.3428 1.34151 12.7489 1.34151C13.2183 1.34151 13.5989 1.04118 13.5989 0.670753C13.5989 0.30033 13.2183 0 12.7489 0H7.6489C5.30547 0 3.39893 1.5045 3.39893 3.35376C3.39893 5.20303 5.30547 6.70753 7.6489 6.70753H12.7489C13.2183 6.70753 13.5989 6.4072 13.5989 6.03678C13.5989 5.66635 13.2183 5.36602 12.7489 5.36602Z" fill="#A5C3DC"/>
<path d="M39.0998 6.70752H1.69999C0.761065 6.70752 0 7.30809 0 8.04903V10.0613C0 10.8022 0.761065 11.4028 1.69999 11.4028H39.0998C40.0387 11.4028 40.7998 10.8022 40.7998 10.0613V8.04903C40.7998 7.30809 40.0387 6.70752 39.0998 6.70752Z" fill="#289BC3"/>
<path d="M18.6988 30.1839H5.09892C4.15999 30.1839 3.39893 29.5833 3.39893 28.8424V15.4273H20.3988V28.8424C20.3988 29.5833 19.6378 30.1839 18.6988 30.1839Z" fill="#00D2D2"/>
<path d="M20.3999 6.70752H1.69999C0.761065 6.70752 0 7.30809 0 8.04903V10.0613C0 10.8022 0.761065 11.4028 1.69999 11.4028H20.3999C21.3388 11.4028 22.0999 10.8022 22.0999 10.0613V8.04903C22.0999 7.30809 21.3388 6.70752 20.3999 6.70752Z" fill="#00D2D2"/>
<path d="M11.8978 10.0613C11.8978 10.8022 12.6589 11.4028 13.5978 11.4028H8.49784C7.55892 11.4028 6.79785 10.8022 6.79785 10.0613V8.04903C6.79785 7.30809 7.55892 6.70752 8.49784 6.70752H13.5978C12.6589 6.70752 11.8978 7.30809 11.8978 8.04903V10.0613Z" fill="#D7E6F0"/>
<path d="M28.9031 10.0613C28.9031 10.8023 28.1421 11.4029 27.2031 11.4029H32.3031C33.242 11.4029 34.0031 10.8023 34.0031 10.0613V8.04909C34.0031 7.30816 33.242 6.70758 32.3031 6.70758H27.2031C28.1421 6.70758 28.9031 7.30816 28.9031 8.04909V10.0613Z" fill="#A5C3DC"/>
<path d="M28.0529 6.70753H17.0029V6.03678C17.0029 2.70808 20.4347 0 24.6529 0H28.0529C30.3963 0 32.3028 1.5045 32.3028 3.35376C32.3028 5.20303 30.3963 6.70753 28.0529 6.70753ZM18.7635 5.36602H28.0529C29.459 5.36602 30.6029 4.46336 30.6029 3.35376C30.6029 2.24417 29.459 1.34151 28.0529 1.34151H24.6529C21.6606 1.34151 19.1771 3.0936 18.7635 5.36602Z" fill="#D7E6F0"/>
<path d="M18.6988 6.70753H7.6489C5.30547 6.70753 3.39893 5.20303 3.39893 3.35376C3.39893 1.5045 5.30547 0 7.6489 0H11.0489C15.2671 0 18.6988 2.70808 18.6988 6.03678V6.70753ZM7.6489 1.34151C6.2428 1.34151 5.09892 2.24417 5.09892 3.35376C5.09892 4.46336 6.2428 5.36602 7.6489 5.36602H16.9383C16.5246 3.0936 14.0411 1.34151 11.0489 1.34151H7.6489Z" fill="#D7E6F0"/>
<path d="M27.201 34.2084C30.0177 34.2084 32.301 32.4066 32.301 30.1839C32.301 27.9612 30.0177 26.1594 27.201 26.1594C24.3844 26.1594 22.1011 27.9612 22.1011 30.1839C22.1011 32.4066 24.3844 34.2084 27.201 34.2084Z" fill="#555A6E"/>
<path d="M27.2 31.5254C28.1389 31.5254 28.9 30.9247 28.9 30.1839C28.9 29.443 28.1389 28.8423 27.2 28.8423C26.2611 28.8423 25.5 29.443 25.5 30.1839C25.5 30.9247 26.2611 31.5254 27.2 31.5254Z" fill="#E6E6EB"/>
<path d="M10.2015 34.2083C13.0182 34.2083 15.3015 32.4065 15.3015 30.1838C15.3015 27.9611 13.0182 26.1593 10.2015 26.1593C7.3849 26.1593 5.10156 27.9611 5.10156 30.1838C5.10156 32.4065 7.3849 34.2083 10.2015 34.2083Z" fill="#555A6E"/>
<path d="M10.1966 31.5254C11.1355 31.5254 11.8966 30.9247 11.8966 30.1839C11.8966 29.443 11.1355 28.8423 10.1966 28.8423C9.25769 28.8423 8.49658 29.443 8.49658 30.1839C8.49658 30.9247 9.25769 31.5254 10.1966 31.5254Z" fill="#E6E6EB"/>
</svg>
